# xmcd
#
# Track frame offsets:
#	183
#	8645
#	19558
#	29480
#	42410
#	54930
#	68718
#	80803
#	91925
#	103968
#	116453
#	128738
#	141928
#	157560
#	167350
#	179793
#	190955
#	203838
#	216078
#	228390
#	238025
#	251005
#	263695
#	274275
#	284743
#	297333
#	310335
#
# Disc length: 4312
#
# Revision: 2
# Processed by: cddbd v1.5.1PL0 Copyright (c) Steve Scherf et al.
# Submitted via: DiscPlay 4.0.4
# Normalized: r1:TDELIM( - )
#
DISCID=8810d61b
DTITLE=Various Artist - Stoned Alchemy
DYEAR=1900
DGENRE=
TTITLE0=Chuck Berry - Come On
TTITLE1=Howlin' Wolf - The Red Rooster
TTITLE2=Benny Spellman - Fortune Teller
TTITLE3=Muddy Waters - I Just Want To Make Love To You
TTITLE4=Bo Diddley - Road Runner
TTITLE5=Alvin Robinson - Down Home Girl
TTITLE6=Jimmy Reed - Bright Light, Big City
TTITLE7=Chuck Berry - Down The Road Apiece
TTITLE8=Chuck Berry - Around And Around
TTITLE9=Irma Thomas - Ruler Of My Heart
TTITLE10=Muddy Waters - I Can't Be Satisfied
TTITLE11=Buster Brown - Fannie Mae
TTITLE12=Bo Diddley - Cops And Robbers
TTITLE13=Howlin' Wolf - Down In The Bottom
TTITLE14=Chuck Berry - You Can't Catch Me
TTITLE15=Bo Diddley - Diddley Daddy
TTITLE16=Muddy Waters - I'm Your Hoochie Coochie Man
TTITLE17=Jimmy Reed - Honest I Do
TTITLE18=Howlin' Wolf - How Many More Years
TTITLE19=Gene Allison - You Can Make It If You Try
TTITLE20=Chuck Berry - Route 66
TTITLE21=Chuck Berry - Carol
TTITLE22=Bo Diddley - I Need You Baby (Mona)
TTITLE23=Dale Hawkins - Susie Q
TTITLE24=Bo Diddley - Pretty Thing
TTITLE25=Muddy Waters - Got My Mojo Working
TTITLE26=Bobby Womack - It's All Over Now
EXTD=
EXTT0=
EXTT1=
EXTT2=
EXTT3=
EXTT4=
EXTT5=
EXTT6=
EXTT7=
EXTT8=
EXTT9=
EXTT10=
EXTT11=
EXTT12=
EXTT13=
EXTT14=
EXTT15=
EXTT16=
EXTT17=
EXTT18=
EXTT19=
EXTT20=
EXTT21=
EXTT22=
EXTT23=
EXTT24=
EXTT25=
EXTT26=
PLAYORDER=
